<?xml version="1.0" encoding="iso-8859-1"?><!-- Generator: Adobe Illustrator 21.1.0, SVG Export Plug-In . SVG Version: 6.00 Build 0)  --><svg fill="#FA5252" xmlns="http://www.w3.org/2000/svg" xmlns:xlink="http://www.w3.org/1999/xlink" viewBox="0 0 50 50" width="500px" height="500px"><path d="M9.12,17.774c-0.589,0.727-1.532,1.3-2.475,1.218C6.528,18.01,6.99,16.965,7.53,16.321c0.589-0.747,1.62-1.28,2.455-1.32C10.083,16.024,9.7,17.027,9.12,17.774"/><path style="fill:none;stroke:#000000;stroke-width:2;stroke-miterlimit:10;" d="M7.04,20.664c-0.572,0-1.428-0.66-2.416-0.66c-1.208,0-2.39,0.759-3.014,1.866c-1.281,2.213-0.333,5.488,0.906,7.289c0.607,0.892,1.34,1.833,2.328,1.833c0.906-0.034,1.213-0.55,2.306-0.55C8.252,30.442,8.577,31,9.565,31s1.587-0.915,2.194-1.807c0.692-1.012,0.991-2.076,0.991-2.076s-1.914-0.72-1.931-2.916c-0.017-1.835,1.475-2.727,1.543-2.779C11.508,20.154,10.168,20,9.734,20C8.489,20,7.604,20.664,7.04,20.664z"/><path d="M23.703,17H18v15h2.375v-5h3.25c2.983,0,5.125-2.075,5.125-5S26.647,17,23.703,17z M23.125,25h-2.75v-6h2.75c2.047,0,3.25,1.105,3.25,3C26.375,23.895,25.182,25,23.125,25z"/><path d="M34.199,21c-2.489,0-4.329,1.396-4.397,3.315h2.111c0.174-0.912,1.036-1.51,2.218-1.51c1.433,0,2.243,0.655,2.243,1.862l0.001,0.833l-2.931,0.155c-2.721,0.161-4.194,1.254-4.194,3.154c0,1.919,1.521,3.192,3.7,3.192c1.472,0,2.838-0.731,3.457-1.89h0.048v1.776h2.169v-7.371C38.625,22.377,36.882,21,34.199,21z M36.368,27.868c0,1.387-1.201,2.375-2.789,2.375c-1.249,0-2.044-0.589-2.044-1.491c0-0.931,0.765-1.472,2.228-1.558L36.375,27L36.368,27.868z"/><path d="M47.595,21l-2.786,8.884H44.76L41.973,21H39.5l4.008,10.949l-0.215,0.666c-0.362,1.129-0.948,1.563-1.994,1.563c-0.179,0-0.518-0.018-0.674-0.037v1.805C40.783,35.981,41.333,36,41.504,36c2.307,0,3.392-0.868,4.341-3.502L50,21H47.595z"/></svg>