<?xml version="1.0" encoding="iso-8859-1"?>
<!-- Generator: Adobe Illustrator 25.2.3, SVG Export Plug-In . SVG Version: 6.00 Build 0)  -->
<svg fill="#FA5252" version="1.1" id="Layer_1" xmlns="http://www.w3.org/2000/svg" xmlns:xlink="http://www.w3.org/1999/xlink" x="0px" y="0px"
	 viewBox="0 0 24 24" style="enable-background:new 0 0 24 24;" xml:space="preserve">
<path d="M8.994,12.242H4.863v1.502h2.002c-0.165,0.345-0.402,0.646-0.691,0.89l0.001,0.001l-0.002,0
	c-0.457,0.382-1.044,0.611-1.686,0.611c-1.114,0-2.065-0.692-2.448-1.67c-0.117-0.298-0.181-0.621-0.181-0.959
	c0-0.545,0.166-1.05,0.449-1.47l0.049-0.065c0.476-0.664,1.251-1.094,2.13-1.094c0.702,0,1.341,0.274,1.81,0.725l1.254-1.401
	C6.748,8.569,5.67,8.111,4.487,8.111c-1.555,0-2.926,0.789-3.737,1.987c-0.486,0.72-0.77,1.587-0.77,2.52
	c0,0.74,0.178,1.438,0.494,2.054c0.747,1.456,2.263,2.453,4.012,2.453c1.201,0,2.292-0.469,3.1-1.235l-0.001-0.001
	c0.867-0.818,1.408-1.983,1.408-3.27V12.242z"/>
<path d="M21.045,15.353l-1.773-4.658h1.077l1.211,3.545l1.485-3.545h0.935c0,0-2.9,6.842-2.924,6.899l-0.935,0.024
	C20.138,17.579,21.045,15.353,21.045,15.353z M18.012,13.552c0,0.577-0.508,0.988-1.18,0.988c-0.528,0-0.865-0.245-0.865-0.62
	c0-0.387,0.324-0.612,0.943-0.648l1.105-0.081L18.012,13.552z M17.095,10.695c-1.053,0-1.832,0.581-1.861,1.379h0.894
	c0.074-0.38,0.438-0.628,0.938-0.628c0.606,0,0.949,0.272,0.949,0.775l0,0.347l-1.24,0.064c-1.151,0.067-1.775,0.522-1.775,1.312
	c0,0.798,0.643,1.328,1.565,1.328c0.623,0,1.201-0.304,1.463-0.786h0.02l0.003,0.786h0.915v-3.114
	C18.967,11.268,18.229,10.695,17.095,10.695z M12.56,12.22h-1.221V9.78h1.221c0.871,0,1.43,0.411,1.43,1.221
	S13.435,12.22,12.56,12.22z M12.852,8.865h-2.428v6.407h0.915v-2.136h1.479C14.088,13.136,15,12.25,15,11S14.105,8.865,12.852,8.865
	z"/>
</svg>